<mxfile host="app.diagrams.net" modified="2023-11-02T14:59:12.456Z" agent="Mozilla/5.0 (Windows NT 10.0; Win64; x64) AppleWebKit/537.36 (KHTML, like Gecko) Chrome/118.0.0.0 Safari/537.36" etag="PxtcU0-qKkVHCb1NY1Vk" version="22.0.8" type="google">
  <diagram name="Trang-1" id="IyQAXdZGtz3G4IscLwGx">
    <mxGraphModel grid="1" page="1" gridSize="10" guides="1" tooltips="1" connect="1" arrows="1" fold="1" pageScale="1" pageWidth="827" pageHeight="1169" math="0" shadow="0">
      <root>
        <mxCell id="0" />
        <mxCell id="1" parent="0" />
        <mxCell id="waNTQ4cFwyrJP3Vw7fTP-22" value="Transformer&lt;br style=&quot;font-size: 25px;&quot;&gt;Encoder" style="rounded=1;whiteSpace=wrap;html=1;fontSize=25;fontStyle=1;strokeWidth=3;fillColor=#E6E6E6;fontColor=#333333;strokeColor=#666666;fontFamily=Times New Roman;glass=0;" vertex="1" parent="1">
          <mxGeometry x="2105" width="310" height="630" as="geometry" />
        </mxCell>
        <mxCell id="waNTQ4cFwyrJP3Vw7fTP-44" value="" style="shape=cube;whiteSpace=wrap;html=1;boundedLbl=1;backgroundOutline=1;darkOpacity=0.05;darkOpacity2=0.1;size=85;fillColor=#d5e8d4;strokeColor=#82b366;fontSize=25;" vertex="1" parent="1">
          <mxGeometry x="1980.25" y="-290" width="537.5" height="99" as="geometry" />
        </mxCell>
        <mxCell id="waNTQ4cFwyrJP3Vw7fTP-49" value="(64x64)" style="text;html=1;strokeColor=none;fillColor=none;align=center;verticalAlign=middle;whiteSpace=wrap;rounded=0;fontSize=25;fontStyle=1;fontFamily=Times New Roman;" vertex="1" parent="1">
          <mxGeometry x="2170" y="-170" width="180" height="30" as="geometry" />
        </mxCell>
        <mxCell id="waNTQ4cFwyrJP3Vw7fTP-52" value="" style="endArrow=classic;html=1;rounded=0;shape=flexArrow;strokeWidth=4;fontFamily=Times New Roman;entryX=0.5;entryY=1;entryDx=0;entryDy=0;fontSize=25;fillColor=#eeeeee;strokeColor=#36393d;" edge="1" parent="1">
          <mxGeometry width="50" height="50" relative="1" as="geometry">
            <mxPoint x="2259" y="-28" as="sourcePoint" />
            <mxPoint x="2259" y="-130" as="targetPoint" />
          </mxGeometry>
        </mxCell>
        <mxCell id="waNTQ4cFwyrJP3Vw7fTP-53" value="" style="group;fontSize=25;" connectable="0" vertex="1" parent="1">
          <mxGeometry x="1980.25" y="764" width="616" height="150" as="geometry" />
        </mxCell>
        <mxCell id="waNTQ4cFwyrJP3Vw7fTP-36" value="(16x64)" style="text;html=1;strokeColor=none;fillColor=none;align=center;verticalAlign=middle;whiteSpace=wrap;rounded=0;fontSize=25;fontStyle=1;fontFamily=Times New Roman;" vertex="1" parent="waNTQ4cFwyrJP3Vw7fTP-53">
          <mxGeometry x="436" y="120" width="180" height="30" as="geometry" />
        </mxCell>
        <mxCell id="waNTQ4cFwyrJP3Vw7fTP-54" value="" style="endArrow=none;html=1;rounded=0;fontSize=25;strokeWidth=10;" edge="1" parent="1">
          <mxGeometry width="50" height="50" relative="1" as="geometry">
            <mxPoint x="1920" y="920" as="sourcePoint" />
            <mxPoint x="1920" y="-320" as="targetPoint" />
          </mxGeometry>
        </mxCell>
        <mxCell id="waNTQ4cFwyrJP3Vw7fTP-24" value="" style="shape=cube;whiteSpace=wrap;html=1;boundedLbl=1;backgroundOutline=1;darkOpacity=0.05;darkOpacity2=0.1;size=85;fillColor=#f8cecc;strokeColor=#b85450;fontSize=25;" vertex="1" parent="1">
          <mxGeometry x="1991.25" y="764" width="148" height="99" as="geometry" />
        </mxCell>
        <mxCell id="waNTQ4cFwyrJP3Vw7fTP-26" value="" style="shape=cube;whiteSpace=wrap;html=1;boundedLbl=1;backgroundOutline=1;darkOpacity=0.05;darkOpacity2=0.1;size=85;fillColor=#f8cecc;strokeColor=#b85450;fontSize=25;" vertex="1" parent="1">
          <mxGeometry x="2127.25" y="764" width="148" height="99" as="geometry" />
        </mxCell>
        <mxCell id="waNTQ4cFwyrJP3Vw7fTP-27" value="" style="shape=cube;whiteSpace=wrap;html=1;boundedLbl=1;backgroundOutline=1;darkOpacity=0.05;darkOpacity2=0.1;size=85;fillColor=#f8cecc;strokeColor=#b85450;fontSize=25;" vertex="1" parent="1">
          <mxGeometry x="2257.25" y="764" width="148" height="99" as="geometry" />
        </mxCell>
        <mxCell id="waNTQ4cFwyrJP3Vw7fTP-28" value="" style="shape=cube;whiteSpace=wrap;html=1;boundedLbl=1;backgroundOutline=1;darkOpacity=0.05;darkOpacity2=0.1;size=85;fillColor=#f8cecc;strokeColor=#b85450;fontSize=25;" vertex="1" parent="1">
          <mxGeometry x="2387.25" y="764" width="148" height="99" as="geometry" />
        </mxCell>
        <mxCell id="waNTQ4cFwyrJP3Vw7fTP-33" value="(16x64)" style="text;html=1;strokeColor=none;fillColor=none;align=center;verticalAlign=middle;whiteSpace=wrap;rounded=0;fontSize=25;fontStyle=1;fontFamily=Times New Roman;" vertex="1" parent="1">
          <mxGeometry x="2007.25" y="884" width="180" height="30" as="geometry" />
        </mxCell>
        <mxCell id="waNTQ4cFwyrJP3Vw7fTP-34" value="(16x64)" style="text;html=1;strokeColor=none;fillColor=none;align=center;verticalAlign=middle;whiteSpace=wrap;rounded=0;fontSize=25;fontStyle=1;fontFamily=Times New Roman;" vertex="1" parent="1">
          <mxGeometry x="2157.25" y="884" width="180" height="30" as="geometry" />
        </mxCell>
        <mxCell id="waNTQ4cFwyrJP3Vw7fTP-35" value="(16x64)" style="text;html=1;strokeColor=none;fillColor=none;align=center;verticalAlign=middle;whiteSpace=wrap;rounded=0;fontSize=25;fontStyle=1;fontFamily=Times New Roman;" vertex="1" parent="1">
          <mxGeometry x="2298.25" y="884" width="180" height="30" as="geometry" />
        </mxCell>
        <mxCell id="FURbgzxlk4nIeYmYdQuI-2" value="" style="endArrow=classic;html=1;rounded=0;shape=flexArrow;strokeWidth=4;fontFamily=Times New Roman;entryX=0.5;entryY=1;entryDx=0;entryDy=0;fontSize=25;fillColor=#eeeeee;strokeColor=#36393d;" edge="1" parent="1">
          <mxGeometry width="50" height="50" relative="1" as="geometry">
            <mxPoint x="2262" y="756" as="sourcePoint" />
            <mxPoint x="2262" y="654" as="targetPoint" />
          </mxGeometry>
        </mxCell>
        <mxCell id="FURbgzxlk4nIeYmYdQuI-3" value="Concatnate (axis=1)" style="text;html=1;strokeColor=none;fillColor=none;align=center;verticalAlign=middle;whiteSpace=wrap;rounded=0;fontSize=25;fontStyle=1;fontFamily=Times New Roman;" vertex="1" parent="1">
          <mxGeometry x="2270" y="690" width="250" height="30" as="geometry" />
        </mxCell>
        <mxCell id="waNTQ4cFwyrJP3Vw7fTP-2" value="" style="rounded=1;whiteSpace=wrap;html=1;fontSize=25;fontStyle=0;strokeWidth=3;fillColor=#E6E6E6;fontColor=#333333;strokeColor=#666666;fontFamily=Times New Roman;glass=0;" vertex="1" parent="1">
          <mxGeometry x="1450" y="-5" width="310" height="630" as="geometry" />
        </mxCell>
        <mxCell id="waNTQ4cFwyrJP3Vw7fTP-3" style="edgeStyle=orthogonalEdgeStyle;rounded=0;hachureGap=4;orthogonalLoop=1;jettySize=auto;html=1;fontFamily=Architects Daughter;fontSource=https%3A%2F%2Ffonts.googleapis.com%2Fcss%3Ffamily%3DArchitects%2BDaughter;fontSize=25;strokeWidth=3;fontStyle=0" edge="1" parent="1" source="waNTQ4cFwyrJP3Vw7fTP-4">
          <mxGeometry relative="1" as="geometry">
            <mxPoint x="1600" y="580" as="targetPoint" />
            <Array as="points">
              <mxPoint x="1600" y="615" />
              <mxPoint x="1600" y="615" />
            </Array>
          </mxGeometry>
        </mxCell>
        <mxCell id="waNTQ4cFwyrJP3Vw7fTP-4" value="Patches Embedding" style="rounded=0;whiteSpace=wrap;html=1;hachureGap=4;fontFamily=Times New Roman;fontSize=25;fillColor=#f8cecc;strokeColor=#b85450;strokeWidth=3;fontStyle=1" vertex="1" parent="1">
          <mxGeometry x="1482.5" y="644" width="235" height="60" as="geometry" />
        </mxCell>
        <mxCell id="waNTQ4cFwyrJP3Vw7fTP-5" value="" style="edgeStyle=orthogonalEdgeStyle;rounded=0;hachureGap=4;orthogonalLoop=1;jettySize=auto;html=1;fontFamily=Architects Daughter;fontSource=https%3A%2F%2Ffonts.googleapis.com%2Fcss%3Ffamily%3DArchitects%2BDaughter;fontSize=25;strokeWidth=3;fontStyle=0" edge="1" parent="1" target="waNTQ4cFwyrJP3Vw7fTP-8">
          <mxGeometry relative="1" as="geometry">
            <mxPoint x="1600" y="525.0000000000002" as="sourcePoint" />
          </mxGeometry>
        </mxCell>
        <mxCell id="waNTQ4cFwyrJP3Vw7fTP-6" style="edgeStyle=orthogonalEdgeStyle;rounded=0;hachureGap=4;orthogonalLoop=1;jettySize=auto;html=1;entryX=0.182;entryY=1.009;entryDx=0;entryDy=0;fontFamily=Architects Daughter;fontSource=https%3A%2F%2Ffonts.googleapis.com%2Fcss%3Ffamily%3DArchitects%2BDaughter;fontSize=25;entryPerimeter=0;strokeWidth=3;fontStyle=0" edge="1" parent="1" target="waNTQ4cFwyrJP3Vw7fTP-8">
          <mxGeometry relative="1" as="geometry">
            <mxPoint x="1600" y="525.0000000000002" as="sourcePoint" />
            <Array as="points">
              <mxPoint x="1600" y="485" />
              <mxPoint x="1546" y="485" />
            </Array>
          </mxGeometry>
        </mxCell>
        <mxCell id="waNTQ4cFwyrJP3Vw7fTP-7" style="edgeStyle=orthogonalEdgeStyle;rounded=0;hachureGap=4;orthogonalLoop=1;jettySize=auto;html=1;entryX=0.816;entryY=0.996;entryDx=0;entryDy=0;fontFamily=Architects Daughter;fontSource=https%3A%2F%2Ffonts.googleapis.com%2Fcss%3Ffamily%3DArchitects%2BDaughter;fontSize=25;entryPerimeter=0;strokeWidth=3;fontStyle=0" edge="1" parent="1" target="waNTQ4cFwyrJP3Vw7fTP-8">
          <mxGeometry relative="1" as="geometry">
            <mxPoint x="1600" y="525.0000000000002" as="sourcePoint" />
            <Array as="points">
              <mxPoint x="1600" y="485" />
              <mxPoint x="1654" y="485" />
              <mxPoint x="1654" y="460" />
            </Array>
          </mxGeometry>
        </mxCell>
        <mxCell id="waNTQ4cFwyrJP3Vw7fTP-8" value="Multi-head Attention&amp;nbsp;" style="rounded=0;whiteSpace=wrap;html=1;hachureGap=4;fontFamily=Times New Roman;fontSize=25;fillColor=#B9E0A5;strokeColor=#82b366;strokeWidth=3;fontStyle=1" vertex="1" parent="1">
          <mxGeometry x="1515" y="385" width="170" height="75" as="geometry" />
        </mxCell>
        <mxCell id="waNTQ4cFwyrJP3Vw7fTP-9" value="Norm&amp;nbsp;" style="rounded=0;whiteSpace=wrap;html=1;hachureGap=4;fontFamily=Times New Roman;fontSize=25;fillColor=#FFE599;strokeColor=#d6b656;strokeWidth=3;fontStyle=1" vertex="1" parent="1">
          <mxGeometry x="1515" y="195" width="170" height="50" as="geometry" />
        </mxCell>
        <mxCell id="waNTQ4cFwyrJP3Vw7fTP-10" value="Fully-connected" style="rounded=0;whiteSpace=wrap;html=1;hachureGap=4;fontFamily=Times New Roman;fontSize=25;fillColor=#A9C4EB;strokeColor=#6c8ebf;strokeWidth=3;fontStyle=1" vertex="1" parent="1">
          <mxGeometry x="1500" y="85" width="200" height="50" as="geometry" />
        </mxCell>
        <mxCell id="waNTQ4cFwyrJP3Vw7fTP-11" value="" style="edgeStyle=orthogonalEdgeStyle;rounded=0;hachureGap=4;orthogonalLoop=1;jettySize=auto;html=1;fontFamily=Architects Daughter;fontSource=https%3A%2F%2Ffonts.googleapis.com%2Fcss%3Ffamily%3DArchitects%2BDaughter;fontSize=25;strokeWidth=3;fontStyle=0" edge="1" parent="1" source="waNTQ4cFwyrJP3Vw7fTP-9" target="waNTQ4cFwyrJP3Vw7fTP-10">
          <mxGeometry relative="1" as="geometry" />
        </mxCell>
        <mxCell id="waNTQ4cFwyrJP3Vw7fTP-12" style="edgeStyle=orthogonalEdgeStyle;rounded=0;hachureGap=4;orthogonalLoop=1;jettySize=auto;html=1;fontFamily=Architects Daughter;fontSource=https%3A%2F%2Ffonts.googleapis.com%2Fcss%3Ffamily%3DArchitects%2BDaughter;fontSize=25;strokeWidth=3;fontStyle=0" edge="1" parent="1" source="waNTQ4cFwyrJP3Vw7fTP-13">
          <mxGeometry relative="1" as="geometry">
            <mxPoint x="1600" y="-75" as="targetPoint" />
          </mxGeometry>
        </mxCell>
        <mxCell id="waNTQ4cFwyrJP3Vw7fTP-13" value="&lt;font style=&quot;font-size: 25px;&quot;&gt;&lt;span style=&quot;font-size: 25px;&quot;&gt;+&lt;/span&gt;&lt;/font&gt;" style="ellipse;whiteSpace=wrap;html=1;aspect=fixed;hachureGap=4;fontFamily=Times New Roman;fontSize=25;strokeWidth=3;fontStyle=0" vertex="1" parent="1">
          <mxGeometry x="1575" y="15" width="50" height="50" as="geometry" />
        </mxCell>
        <mxCell id="waNTQ4cFwyrJP3Vw7fTP-14" style="edgeStyle=orthogonalEdgeStyle;rounded=0;hachureGap=4;orthogonalLoop=1;jettySize=auto;html=1;entryX=1;entryY=0.5;entryDx=0;entryDy=0;fontFamily=Architects Daughter;fontSource=https%3A%2F%2Ffonts.googleapis.com%2Fcss%3Ffamily%3DArchitects%2BDaughter;fontSize=25;strokeWidth=3;fontStyle=0" edge="1" parent="1" source="waNTQ4cFwyrJP3Vw7fTP-15" target="waNTQ4cFwyrJP3Vw7fTP-13">
          <mxGeometry relative="1" as="geometry">
            <Array as="points">
              <mxPoint x="1600" y="285" />
              <mxPoint x="1730" y="285" />
              <mxPoint x="1730" y="40" />
            </Array>
          </mxGeometry>
        </mxCell>
        <mxCell id="waNTQ4cFwyrJP3Vw7fTP-15" value="&lt;span style=&quot;font-size: 25px;&quot;&gt;&lt;font style=&quot;font-size: 25px;&quot;&gt;+&lt;/font&gt;&lt;/span&gt;" style="ellipse;whiteSpace=wrap;html=1;aspect=fixed;hachureGap=4;fontFamily=Times New Roman;fontSize=25;strokeWidth=3;fontStyle=0" vertex="1" parent="1">
          <mxGeometry x="1575" y="305" width="50" height="50" as="geometry" />
        </mxCell>
        <mxCell id="waNTQ4cFwyrJP3Vw7fTP-16" style="edgeStyle=orthogonalEdgeStyle;rounded=0;hachureGap=4;orthogonalLoop=1;jettySize=auto;html=1;entryX=1;entryY=0.5;entryDx=0;entryDy=0;fontFamily=Architects Daughter;fontSource=https%3A%2F%2Ffonts.googleapis.com%2Fcss%3Ffamily%3DArchitects%2BDaughter;fontSize=25;strokeWidth=3;fontStyle=0" edge="1" parent="1" source="waNTQ4cFwyrJP3Vw7fTP-4" target="waNTQ4cFwyrJP3Vw7fTP-15">
          <mxGeometry relative="1" as="geometry">
            <Array as="points">
              <mxPoint x="1600" y="605" />
              <mxPoint x="1720" y="605" />
              <mxPoint x="1720" y="330" />
            </Array>
          </mxGeometry>
        </mxCell>
        <mxCell id="waNTQ4cFwyrJP3Vw7fTP-17" value="" style="endArrow=none;html=1;rounded=0;hachureGap=4;fontFamily=Architects Daughter;fontSource=https%3A%2F%2Ffonts.googleapis.com%2Fcss%3Ffamily%3DArchitects%2BDaughter;fontSize=25;exitX=0.5;exitY=0;exitDx=0;exitDy=0;strokeWidth=3;fontStyle=0" edge="1" parent="1" source="waNTQ4cFwyrJP3Vw7fTP-8">
          <mxGeometry width="50" height="50" relative="1" as="geometry">
            <mxPoint x="1550" y="405" as="sourcePoint" />
            <mxPoint x="1600" y="355" as="targetPoint" />
          </mxGeometry>
        </mxCell>
        <mxCell id="waNTQ4cFwyrJP3Vw7fTP-18" value="" style="endArrow=none;html=1;rounded=0;hachureGap=4;fontFamily=Architects Daughter;fontSource=https%3A%2F%2Ffonts.googleapis.com%2Fcss%3Ffamily%3DArchitects%2BDaughter;fontSize=25;exitX=0.5;exitY=0;exitDx=0;exitDy=0;strokeWidth=3;fontStyle=0;entryX=0.5;entryY=1;entryDx=0;entryDy=0;" edge="1" parent="1" target="waNTQ4cFwyrJP3Vw7fTP-9">
          <mxGeometry width="50" height="50" relative="1" as="geometry">
            <mxPoint x="1599.77" y="300" as="sourcePoint" />
            <mxPoint x="1599.77" y="255" as="targetPoint" />
          </mxGeometry>
        </mxCell>
        <mxCell id="waNTQ4cFwyrJP3Vw7fTP-19" value="" style="endArrow=none;html=1;rounded=0;hachureGap=4;fontFamily=Architects Daughter;fontSource=https%3A%2F%2Ffonts.googleapis.com%2Fcss%3Ffamily%3DArchitects%2BDaughter;fontSize=25;exitX=0.5;exitY=0;exitDx=0;exitDy=0;strokeWidth=3;fontStyle=0" edge="1" parent="1" source="waNTQ4cFwyrJP3Vw7fTP-10">
          <mxGeometry width="50" height="50" relative="1" as="geometry">
            <mxPoint x="1600" y="85" as="sourcePoint" />
            <mxPoint x="1599.77" y="65" as="targetPoint" />
          </mxGeometry>
        </mxCell>
        <mxCell id="waNTQ4cFwyrJP3Vw7fTP-20" value="Norm" style="rounded=0;whiteSpace=wrap;html=1;hachureGap=4;fontFamily=Times New Roman;fontSize=25;fillColor=#FFE599;strokeColor=#d6b656;strokeWidth=3;fontStyle=1" vertex="1" parent="1">
          <mxGeometry x="1515" y="525" width="170" height="50" as="geometry" />
        </mxCell>
        <mxCell id="Q_eFx1F2wPKfdcBYnAj3-3" value="2-D Feature Embedding" style="text;html=1;strokeColor=none;fillColor=none;align=center;verticalAlign=middle;whiteSpace=wrap;rounded=0;fontSize=25;fontStyle=1;fontFamily=Times New Roman;" vertex="1" parent="1">
          <mxGeometry x="2067" y="-330" width="331" height="30" as="geometry" />
        </mxCell>
        <mxCell id="Q_eFx1F2wPKfdcBYnAj3-4" value="Patches Embedding" style="text;html=1;strokeColor=none;fillColor=none;align=center;verticalAlign=middle;whiteSpace=wrap;rounded=0;fontSize=25;fontStyle=1;fontFamily=Times New Roman;" vertex="1" parent="1">
          <mxGeometry x="2505.75" y="774" width="234.25" height="30" as="geometry" />
        </mxCell>
        <mxCell id="05jl3Go5k0wxR1S9r446-1" value="" style="endArrow=classic;html=1;rounded=0;strokeWidth=3;" edge="1" parent="1">
          <mxGeometry width="50" height="50" relative="1" as="geometry">
            <mxPoint x="1982" y="750" as="sourcePoint" />
            <mxPoint x="2072" y="750" as="targetPoint" />
          </mxGeometry>
        </mxCell>
        <mxCell id="05jl3Go5k0wxR1S9r446-2" value="axis = 1" style="text;html=1;strokeColor=none;fillColor=none;align=center;verticalAlign=middle;whiteSpace=wrap;rounded=0;fontSize=25;fontStyle=1;fontFamily=Times New Roman;" vertex="1" parent="1">
          <mxGeometry x="1905" y="700" width="234.25" height="30" as="geometry" />
        </mxCell>
      </root>
    </mxGraphModel>
  </diagram>
</mxfile>
